<svg width="24" height="24" viewBox="0 0 24 24" fill="none" xmlns="http://www.w3.org/2000/svg"><rect width="27" height="27" fill="none" rx="0" ry="0"></rect><path fill-rule="evenodd" clip-rule="evenodd" d="M4 6.5C4 5.67157 4.67157 5 5.5 5H18.5C19.3284 5 20 5.67157 20 6.5C20 7.32843 19.3284 8 18.5 8H5.5C4.67157 8 4 7.32843 4 6.5ZM4 12C4 11.1716 4.67157 10.5 5.5 10.5H18.5C19.3284 10.5 20 11.1716 20 12C20 12.8284 19.3284 13.5 18.5 13.5H5.5C4.67157 13.5 4 12.8284 4 12ZM5.5 16C4.67157 16 4 16.6716 4 17.5C4 18.3284 4.67157 19 5.5 19H18.5C19.3284 19 20 18.3284 20 17.5C20 16.6716 19.3284 16 18.5 16H5.5Z" fill="#1537C8"></path></svg>