<svg width="50" height="50" viewBox="0 0 24 24" fill="none" xmlns="http://www.w3.org/2000/svg" data-reactroot="">
<path fill="#1537C8" d="M6 6H3C2.45 6 2 6.45 2 7V21C2 21.55 2.45 22 3 22H17C17.55 22 18 21.55 18 21V18H7C6.45 18 6 17.55 6 17V6Z" undefined="1"></path>
<path stroke-linejoin="round" stroke-miterlimit="10" stroke-width="1" stroke="white" d="M18 18H7C6.45 18 6 17.55 6 17V6"></path>
<path fill="#1537C8" d="M17 2V6.99998H22V17C22 17.55 21.55 18 21 18H7C6.45 18 6 17.55 6 17V3C6 2.45 6.45 2 7 2H17Z" undefined="1"></path>
<path stroke-linejoin="round" stroke-linecap="round" stroke-miterlimit="10" stroke-width="1" stroke="white" d="M18 14H10"></path>
<path stroke-linejoin="round" stroke-linecap="round" stroke-miterlimit="10" stroke-width="1" stroke="white" d="M10 10H18"></path>
<path stroke-linejoin="round" stroke-linecap="round" stroke-miterlimit="10" stroke-width="1" stroke="white" d="M10 6H13"></path>
<path stroke-linejoin="round" stroke-miterlimit="10" stroke-width="1" stroke="white" d="M17 2V7H22"></path>
<path fill="#1537C8" d="M17 2V7H22V6.41C22 6.15 21.89 5.89 21.71 5.71L18.29 2.29C18.11 2.11 17.85 2 17.59 2H17Z" undefined="1"></path>
</svg>
