<svg width="50" height="50" viewBox="0 0 24 24" fill="none" xmlns="http://www.w3.org/2000/svg" data-reactroot="">
<path fill="#1537C8" d="M20 16V15H18V16C18 17.6665 17.2893 18.8713 16.1618 19.6913C15.558 20.1304 14.8213 20.4669 13.993 20.6886C13.9976 20.6263 14 20.5634 14 20.5C14 19.1193 12.8807 18 11.5 18C10.1193 18 9 19.1193 9 20.5C9 21.8807 10.1193 23 11.5 23C13.6507 23 15.749 22.4645 17.3382 21.3087C18.9607 20.1287 20 18.3335 20 16Z" clip-rule="evenodd" fill-rule="evenodd" undefined="1"></path>
<path fill="#1537C8" d="M6.31124 3.0875C7.78034 1.69186 9.7935 1 12 1C14.2065 1 16.2196 1.69186 17.6887 3.0875C19.1661 4.49097 20 6.51802 20 9V9.49951C20.6072 9.95541 21 10.6813 21 11.4993V13.5002C21 14.881 19.8807 16 18.5 16H17V9H18C18 6.98198 17.3339 5.50903 16.3112 4.5375C15.2803 3.55814 13.7935 3 12 3C10.2065 3 8.71964 3.55814 7.68874 4.5375C6.66608 5.50903 5.99999 6.98198 5.99999 9H6.99999V16H5.49994C4.11923 16 2.99994 14.881 2.99994 13.5002V11.4993C2.99994 10.6813 3.39274 9.95541 3.99999 9.49951V9C3.99999 6.51802 4.8339 4.49097 6.31124 3.0875Z" clip-rule="evenodd" fill-rule="evenodd" undefined="1"></path>
</svg>
