<svg width="119" height="100" viewBox="0 0 119 100" fill="none" xmlns="http://www.w3.org/2000/svg">
<path d="M56.3595 72.1251C56.3595 72.1251 63.5775 72.4281 63.5775 74.2461C63.5775 76.064 55.4573 74.2461 55.4573 74.2461L56.3595 72.1251Z" fill="#FFB8B8"/>
<path d="M45.5326 100L31.9989 99.0911L31.3974 91.8193L28.3899 98.1821L15.157 96.3642C15.4577 84.8506 20.2697 73.6401 20.5705 72.1251C20.8712 70.6102 21.59 64.3504 21.59 64.3504C22.9043 61.5417 29.7914 61.2782 35.1899 61.5327C37.4275 61.6357 39.4124 61.8296 40.6364 61.969C41.4454 62.0598 41.9236 62.1265 41.9236 62.1265C44.08 64.3656 45.4695 67.4167 46.3236 70.8253C49.4033 83.1054 45.5326 100 45.5326 100Z" fill="#2F2E41"/>
<path d="M30.495 29.7068C34.6475 29.7068 38.0138 26.3155 38.0138 22.1321C38.0138 17.9487 34.6475 14.5574 30.495 14.5574C26.3426 14.5574 22.9763 17.9487 22.9763 22.1321C22.9763 26.3155 26.3426 29.7068 30.495 29.7068Z" fill="#FFB8B8"/>
<path d="M25.3825 23.95C25.3825 23.95 23.2772 33.3426 19.969 36.0695C16.6607 38.7964 32.9012 36.0695 32.9012 36.0695C32.9012 36.0695 29.2922 30.0097 31.999 27.2828C34.7057 24.5559 25.3825 23.95 25.3825 23.95Z" fill="#FFB8B8"/>
<path d="M40.7205 62.7324L35.7311 63.2899L21.7733 64.8533C21.7733 64.8533 21.7072 64.6745 21.5899 64.3503C20.5763 61.5659 15.6952 48.0163 15.1568 43.9471C14.5553 39.4023 20.8711 33.9485 20.8711 33.9485C20.8711 33.9485 26.8861 32.7366 28.6905 32.7366C30.495 32.7366 37.713 35.4635 37.713 35.4635L40.4047 59.857L40.6363 61.9688L40.7205 62.7324Z" fill="#1537C8"/>
<path opacity="0.15" d="M46.3237 70.8252L36.2095 64.8533C36.2095 64.8533 36.032 64.2716 35.7312 63.2899C35.5809 62.7991 35.3975 62.2052 35.1899 61.5326C34.023 57.7574 32.0651 51.5279 30.4952 46.9771C28.0892 40.0083 39.8185 59.3996 39.8185 59.3996L40.4049 59.8571L40.6365 61.9689C41.4455 62.0598 41.9237 62.1265 41.9237 62.1265C44.08 64.3655 45.4695 67.4166 46.3237 70.8252Z" fill="black"/>
<path d="M32.9011 36.0695C32.9011 36.0695 29.8936 40.0084 32.2996 46.9771C34.7056 53.9458 38.0139 64.8534 38.0139 64.8534L55.4573 75.155L57.8633 72.1251L41.6229 59.3996C41.6229 59.3996 41.0214 36.3725 38.0139 35.4635C35.0064 34.5546 32.9011 36.0695 32.9011 36.0695Z" fill="#1537C8"/>
<path d="M18.0139 62.581C18.0139 62.581 22.2244 71.3677 24.0289 70.4587C25.8334 69.5497 19.5177 60.4601 19.5177 60.4601L18.0139 62.581Z" fill="#FFB8B8"/>
<path d="M17.5629 38.4935L1.6232 51.825C1.6232 51.825 -4.39178 56.0668 6.73594 59.0967C17.8637 62.1266 18.7659 63.9445 18.7659 63.9445C18.7659 63.9445 19.9689 60.0057 21.4726 60.6117L8.54043 54.2489L19.0666 47.8862L17.5629 38.4935Z" fill="#1537C8"/>
<path d="M11.1565 28.3491C11.9931 27.9317 13.8405 27.0893 15.414 26.0745C15.3037 22.773 15.7072 19.7759 16.8885 18.1873C17.5516 16.6705 18.944 15.152 20.0345 13.9561C22.7126 11.0193 28.6344 9.38007 29.6847 10.8474C37.6286 11.0054 38.4649 17.2785 38.4649 17.2785C38.4236 19.9025 35.7167 19.9855 33.3454 19.8899C33.5578 21.6812 32.9919 23.5425 31.3532 24.3679C28.2196 25.9464 27.2795 27.9984 28.8463 29.419C30.4131 30.8397 33.2334 34.628 29.473 35.5751C25.7127 36.5221 25.2426 38.4163 26.3394 39.2056C27.4362 39.9948 23.8325 37.7849 23.8325 37.7849C23.8325 37.7849 23.2058 41.5733 19.9155 40.6262C19.6206 40.5413 19.3259 40.3238 19.0362 39.9986C18.1475 40.9823 17.3548 41.5639 16.7573 41.5671C13.3354 41.5853 13.7457 37.7671 13.7457 37.7671C13.7457 37.7671 9.68409 38.9162 10.9515 38.4541C12.2188 37.9921 12.2731 36.0403 8.90552 34.1069C5.53789 32.1735 9.26756 29.2915 11.1565 28.3491Z" fill="#2F2E41"/>
<path d="M53.1414 38.2466L53.0868 38.2394L53.2199 38.749C53.3457 39.46 53.5284 40.1596 53.7661 40.8409L57.6692 55.7887C57.7938 56.2658 58.0539 56.6959 58.4176 57.0261C58.7814 57.3564 59.2329 57.5725 59.7168 57.6479L67.6765 58.8885C68.1912 58.9687 68.7179 58.8859 69.1839 58.6516C69.6499 58.4174 70.0322 58.0431 70.278 57.5805L77.8423 43.3466C78.0786 42.9522 78.2946 42.5458 78.4893 42.129L78.7462 41.6457L78.7061 41.6404C79.508 39.7294 79.8609 37.6577 79.7375 35.5867C79.614 33.5157 79.0175 31.5014 77.9943 29.7008C76.9712 27.9003 75.5492 26.3621 73.839 25.2061C72.1289 24.0502 70.1769 23.3078 68.1351 23.0367C66.0934 22.7657 64.0171 22.9733 62.0681 23.6435C60.1191 24.3137 58.3501 25.4282 56.8989 26.9003C55.4477 28.3724 54.3536 30.1623 53.7018 32.1304C53.0501 34.0984 52.8583 36.1916 53.1414 38.2466H53.1414Z" fill="#F1F1F1"/>
<path d="M70.2754 41.644L65.2129 55.5696L65.4982 55.6749L70.5607 41.7493L70.2754 41.644Z" fill="#959595"/>
<path d="M62.0096 40.3556L61.7061 40.369L62.3522 55.1849L62.6558 55.1714L62.0096 40.3556Z" fill="#959595"/>
<path d="M67.4616 66.9485L56.8004 65.2869C56.7211 65.2741 56.6501 65.2302 56.6028 65.1647C56.5556 65.0993 56.536 65.0178 56.5483 64.9378C56.5605 64.8579 56.6037 64.7861 56.6684 64.7381C56.733 64.6901 56.8139 64.6699 56.8933 64.6818L67.5545 66.3434C67.5941 66.3493 67.6322 66.3631 67.6665 66.3839C67.7008 66.4047 67.7307 66.4322 67.7545 66.4646C67.7782 66.4971 67.7954 66.534 67.8049 66.5732C67.8145 66.6124 67.8162 66.6531 67.8101 66.693C67.804 66.7329 67.7901 66.7712 67.7692 66.8056C67.7484 66.8401 67.721 66.87 67.6886 66.8938C67.6562 66.9175 67.6194 66.9346 67.5805 66.944C67.5415 66.9533 67.5011 66.9549 67.4616 66.9485Z" fill="#CBCBCB"/>
<path d="M67.7349 64.6675L57.0736 63.0059C57.034 63 56.9959 62.9862 56.9616 62.9654C56.9273 62.9446 56.8974 62.9172 56.8737 62.8847C56.8499 62.8522 56.8328 62.8153 56.8232 62.7761C56.8137 62.7369 56.8119 62.6962 56.818 62.6563C56.8242 62.6164 56.838 62.5782 56.8589 62.5437C56.8798 62.5093 56.9072 62.4793 56.9396 62.4556C56.9719 62.4318 57.0087 62.4148 57.0476 62.4054C57.0866 62.396 57.127 62.3944 57.1665 62.4009L67.8278 64.0624C67.8674 64.0684 67.9055 64.0822 67.9398 64.103C67.9741 64.1238 68.004 64.1512 68.0277 64.1837C68.0515 64.2162 68.0686 64.2531 68.0782 64.2923C68.0877 64.3315 68.0895 64.3722 68.0834 64.4121C68.0773 64.452 68.0634 64.4902 68.0425 64.5247C68.0217 64.5591 67.9942 64.5891 67.9619 64.6128C67.9295 64.6366 67.8927 64.6536 67.8538 64.663C67.8148 64.6724 67.7744 64.6739 67.7349 64.6675Z" fill="#CBCBCB"/>
<path d="M68.0082 62.3867L57.347 60.7251C57.2677 60.7123 57.1967 60.6684 57.1495 60.603C57.1022 60.5376 57.0826 60.456 57.0949 60.3761C57.1072 60.2961 57.1503 60.2243 57.215 60.1764C57.2796 60.1284 57.3605 60.1081 57.4399 60.12L68.1011 61.7816C68.1804 61.7945 68.2514 61.8384 68.2987 61.9038C68.3459 61.9692 68.3655 62.0508 68.3533 62.1307C68.341 62.2107 68.2978 62.2824 68.2331 62.3304C68.1685 62.3784 68.0876 62.3986 68.0082 62.3867H68.0082Z" fill="#CBCBCB"/>
<path d="M61.7994 68.2757C63.9141 68.6053 65.8108 67.6851 66.0357 66.2204L58.3776 65.0269C58.1527 66.4915 59.6847 67.9461 61.7994 68.2757Z" fill="#CBCBCB"/>
<path d="M65.6317 38.7102C65.1768 38.6394 64.8004 38.2771 64.5941 38.0343C64.5265 37.9548 64.4606 37.8722 64.3946 37.7894C64.1543 37.4881 63.9274 37.2035 63.6115 37.0551C62.9141 36.7273 62.0923 37.1852 61.3809 37.6764L61.209 37.4239C61.9912 36.8837 62.9033 36.3846 63.74 36.7776C64.12 36.9562 64.38 37.2823 64.6314 37.5976C64.6955 37.678 64.7594 37.758 64.8249 37.8353C65.0395 38.0876 65.4673 38.4966 65.9258 38.4023C66.119 38.3456 66.2987 38.2497 66.4539 38.1207C66.5721 38.0318 66.6971 37.9524 66.8276 37.8831C67.0923 37.7552 67.3887 37.7091 67.6793 37.7505C67.97 37.7919 68.2421 37.9189 68.4612 38.1157C68.5394 38.1903 68.6134 38.2691 68.6829 38.3519C68.8196 38.5089 68.9487 38.6571 69.1167 38.7109C69.365 38.7909 69.6275 38.6479 69.9057 38.4968C70.1926 38.3409 70.4891 38.1795 70.8255 38.2193C70.8364 38.2206 70.8474 38.2221 70.8583 38.2238C71.4568 38.3171 71.7328 38.984 71.889 39.4818L71.5991 39.5739C71.387 38.8974 71.1286 38.5609 70.7899 38.5234C70.5489 38.4949 70.3066 38.6267 70.0501 38.7662C69.7285 38.9411 69.3956 39.122 69.0244 39.0026C68.776 38.923 68.6125 38.7354 68.4545 38.5539C68.3922 38.4796 68.326 38.4087 68.2561 38.3417C68.0816 38.1877 67.8663 38.0882 67.6365 38.0555C67.4068 38.0228 67.1726 38.0582 66.9625 38.1574C66.8462 38.2198 66.7348 38.291 66.6293 38.3706C66.4407 38.5255 66.2218 38.6386 65.9868 38.7023C65.8699 38.7263 65.7496 38.729 65.6317 38.7102Z" fill="#959595"/>
</svg>
