<svg width="425" height="315" viewBox="0 0 425 315" fill="none" xmlns="http://www.w3.org/2000/svg">
<g clip-path="url(#clip0)">
<path d="M83.3026 285.449C126.548 285.449 161.605 282.786 161.605 279.501C161.605 276.217 126.548 273.554 83.3026 273.554C40.0573 273.554 5 276.217 5 279.501C5 282.786 40.0573 285.449 83.3026 285.449Z" fill="#E6E6E6"/>
<path d="M64.853 72.6874C78.48 66.8914 95.4527 70.5637 112.028 73.1124C112.183 70.0259 114.052 66.2694 112.094 64.1161C109.714 61.5 109.933 58.7512 111.365 55.9866C115.027 48.9171 109.781 41.3947 104.484 35.1399C103.291 33.7333 101.782 32.6281 100.081 31.9141C98.3795 31.2001 96.534 30.8974 94.6939 31.0306L84.8825 31.7314C82.495 31.902 80.2165 32.7976 78.3519 34.2984C76.4874 35.7993 75.1256 37.8338 74.4489 40.1297V40.1297C72.1062 43.3159 70.8523 46.4933 71.6417 49.6542C68.1327 52.0522 67.5431 54.9469 69.1199 58.2102C70.457 60.2648 70.4428 62.2649 69.0591 64.2095C67.2419 66.6889 65.8501 69.4534 64.9407 72.3897L64.853 72.6874Z" fill="#2F2E41"/>
<path d="M388.687 248.394H110.952C108.482 248.394 106.113 247.413 104.367 245.667C102.62 243.92 101.639 241.552 101.639 239.082C202.318 227.381 301.105 227.381 398 239.082C398 241.552 397.019 243.92 395.272 245.667C393.526 247.413 391.157 248.394 388.687 248.394Z" fill="#2F2E41"/>
<path d="M398 239.629L101.639 239.082L135.986 181.289L136.151 181.015V53.6453C136.151 52.0993 136.455 50.5684 137.047 49.1401C137.638 47.7118 138.505 46.414 139.598 45.3208C140.692 44.2276 141.989 43.3605 143.418 42.7689C144.846 42.1773 146.377 41.8729 147.923 41.873H350.073C351.619 41.8729 353.15 42.1773 354.578 42.7689C356.006 43.3605 357.304 44.2276 358.397 45.3208C359.49 46.414 360.357 47.7118 360.949 49.1401C361.541 50.5684 361.845 52.0993 361.845 53.6453V181.891L398 239.629Z" fill="#64627F"/>
<path d="M147.654 50.0901C146.638 50.0912 145.663 50.4956 144.944 51.2145C144.225 51.9334 143.821 52.908 143.82 53.9247V170.059C143.821 171.075 144.225 172.05 144.944 172.769C145.663 173.488 146.638 173.892 147.654 173.893H351.984C353.001 173.892 353.976 173.488 354.695 172.769C355.413 172.05 355.818 171.075 355.819 170.059V53.9247C355.818 52.9081 355.413 51.9334 354.695 51.2145C353.976 50.4957 353.001 50.0913 351.984 50.0901H147.654Z" fill="white"/>
<path d="M148.511 189.232C148.197 189.232 147.889 189.323 147.625 189.492C147.36 189.662 147.149 189.903 147.018 190.188L136.434 213.196C136.319 213.446 136.269 213.722 136.288 213.997C136.307 214.271 136.395 214.537 136.543 214.769C136.692 215.001 136.897 215.192 137.138 215.325C137.38 215.457 137.651 215.526 137.927 215.526H360.491C360.771 215.526 361.047 215.455 361.291 215.318C361.536 215.182 361.742 214.985 361.889 214.747C362.036 214.508 362.12 214.236 362.132 213.957C362.145 213.677 362.086 213.398 361.96 213.148L350.457 190.14C350.321 189.867 350.111 189.636 349.852 189.476C349.592 189.315 349.292 189.231 348.987 189.232H148.511Z" fill="#A09FAC"/>
<path d="M248.998 48.1729C250.359 48.1729 251.463 47.0692 251.463 45.7078C251.463 44.3463 250.359 43.2427 248.998 43.2427C247.636 43.2427 246.533 44.3463 246.533 45.7078C246.533 47.0692 247.636 48.1729 248.998 48.1729Z" fill="white" fill-opacity="0.8"/>
<path d="M227.122 219.909C226.761 219.909 226.409 220.028 226.123 220.248C225.836 220.468 225.629 220.776 225.535 221.125L222.88 230.985C222.815 231.229 222.806 231.484 222.855 231.732C222.904 231.979 223.009 232.212 223.163 232.412C223.316 232.612 223.513 232.775 223.74 232.886C223.966 232.998 224.215 233.056 224.467 233.056H274.954C275.216 233.056 275.475 232.993 275.707 232.873C275.94 232.753 276.141 232.579 276.293 232.366C276.445 232.152 276.544 231.906 276.581 231.646C276.618 231.387 276.593 231.122 276.507 230.875L273.094 221.014C272.982 220.692 272.772 220.412 272.494 220.214C272.216 220.015 271.882 219.909 271.541 219.909H227.122Z" fill="#E2E2E2"/>
<path d="M361.845 179.097V181.288H135.986L136.156 181.015V179.097H361.845Z" fill="#2F2E41"/>
<path d="M328.776 134.502H170.863C170.087 134.501 169.344 134.193 168.796 133.644C168.248 133.096 167.939 132.353 167.938 131.578V92.406C167.939 91.6307 168.248 90.8874 168.796 90.3392C169.344 89.791 170.087 89.4826 170.863 89.4817H328.776C329.552 89.4826 330.295 89.791 330.843 90.3392C331.391 90.8874 331.7 91.6307 331.701 92.406V131.578C331.7 132.353 331.391 133.096 330.843 133.644C330.295 134.193 329.552 134.501 328.776 134.502V134.502ZM170.863 90.6514C170.398 90.6519 169.952 90.837 169.623 91.1659C169.294 91.4948 169.109 91.9408 169.108 92.406V131.578C169.109 132.043 169.294 132.489 169.623 132.818C169.952 133.147 170.398 133.332 170.863 133.332H328.776C329.242 133.332 329.688 133.147 330.016 132.818C330.345 132.489 330.53 132.043 330.531 131.578V92.406C330.53 91.9408 330.345 91.4948 330.016 91.1659C329.688 90.8369 329.242 90.6519 328.776 90.6514L170.863 90.6514Z" fill="#E6E6E6"/>
<path d="M195.399 122.401C201.978 122.401 207.312 117.068 207.312 110.489C207.312 103.91 201.978 98.5767 195.399 98.5767C188.821 98.5767 183.487 103.91 183.487 110.489C183.487 117.068 188.821 122.401 195.399 122.401Z" fill="#E6E6E6"/>
<path d="M222.911 102.547C222.65 102.547 222.391 102.598 222.15 102.698C221.909 102.797 221.69 102.943 221.505 103.128C221.32 103.312 221.174 103.531 221.074 103.772C220.974 104.013 220.922 104.272 220.922 104.533C220.922 104.794 220.974 105.052 221.074 105.293C221.174 105.534 221.32 105.753 221.505 105.938C221.69 106.122 221.909 106.268 222.15 106.368C222.391 106.467 222.65 106.518 222.911 106.518H316.506C317.033 106.518 317.538 106.309 317.91 105.937C318.282 105.564 318.492 105.059 318.492 104.533C318.492 104.006 318.282 103.501 317.91 103.129C317.538 102.757 317.033 102.547 316.506 102.547H222.911Z" fill="#1537C8"/>
<path d="M222.911 114.459C222.384 114.459 221.879 114.669 221.507 115.041C221.134 115.413 220.925 115.918 220.925 116.445C220.925 116.971 221.134 117.476 221.507 117.849C221.879 118.221 222.384 118.43 222.911 118.43H263.185C263.712 118.43 264.216 118.221 264.589 117.849C264.961 117.476 265.17 116.971 265.17 116.445C265.17 115.918 264.961 115.413 264.589 115.041C264.216 114.669 263.712 114.459 263.185 114.459H222.911Z" fill="#FF7837"/>
<path d="M135.598 115.263L106.406 130.782L106.037 117.849C115.565 116.259 124.629 113.489 133.011 108.981L136.064 101.438C136.397 100.616 136.938 99.8948 137.633 99.3449C138.329 98.7951 139.155 98.4356 140.032 98.3018C140.909 98.1679 141.805 98.2643 142.633 98.5815C143.461 98.8986 144.192 99.4257 144.755 100.111V100.111C145.578 101.113 145.99 102.391 145.906 103.686C145.823 104.98 145.25 106.195 144.305 107.083L135.598 115.263Z" fill="#FFB8B8"/>
<path d="M64.2714 204.867C64.0584 204.086 64.0132 203.269 64.1387 202.469C64.2642 201.669 64.5576 200.905 64.9995 200.227L71.4121 190.385C72.9288 188.058 75.2561 186.376 77.9424 185.668C80.6287 184.959 83.4825 185.273 85.9501 186.55V186.55C83.2551 191.137 83.6308 195.162 86.8808 198.659C81.8355 201.122 77.1724 204.301 73.0361 208.097C72.281 208.612 71.4138 208.939 70.5067 209.051C69.5997 209.163 68.6791 209.056 67.8216 208.74C66.964 208.424 66.1945 207.907 65.5769 207.234C64.9594 206.56 64.5118 205.749 64.2714 204.867V204.867Z" fill="#2F2E41"/>
<path d="M136.927 191.999C135.957 193.616 134.587 194.957 132.95 195.893C131.312 196.828 129.461 197.327 127.575 197.341L84.9745 197.664L83.127 186.948L101.972 181.405L86.083 169.211L103.45 148.888L134.994 178.289C136.838 180.007 138.036 182.306 138.388 184.802C138.74 187.297 138.224 189.838 136.927 191.999V191.999Z" fill="#2F2E41"/>
<path d="M78.3235 265.285H68.3466C59.3889 203.883 50.2707 142.309 77.215 119.327L108.993 124.5L104.928 151.475L87.1918 171.798L78.3235 265.285Z" fill="#2F2E41"/>
<path d="M87.0933 279.194C86.3123 279.407 85.495 279.452 84.6953 279.327C83.8955 279.202 83.1314 278.908 82.4531 278.466L71.6203 277.01C69.2925 275.494 67.6111 273.167 66.9022 270.48C66.1933 267.794 66.5076 264.94 67.7839 262.472C72.3715 265.167 76.3958 264.791 79.8929 261.541C82.3638 266.53 86.4351 266.226 90.3233 270.429C90.8381 271.184 91.165 272.052 91.2769 272.959C91.3887 273.866 91.2822 274.786 90.9662 275.644C90.6502 276.501 90.1338 277.271 89.4602 277.889C88.7865 278.506 87.975 278.954 87.0933 279.194V279.194Z" fill="#2F2E41"/>
<path d="M101.972 78.3111L83.4966 73.877C86.5651 67.596 86.8178 60.607 85.3441 53.1842L97.9076 52.8147C98.3012 62.0452 99.4922 70.6688 101.972 78.3111Z" fill="#FFB8B8"/>
<path d="M107.05 135.626C93.6002 144.791 84.0971 135.94 76.8451 122.283C77.8529 113.927 76.2212 103.927 73.1993 93.0605C71.8553 88.2678 72.3571 83.1453 74.6055 78.7045C76.8539 74.2637 80.6855 70.8272 85.3439 69.0735V69.0735L101.233 75.7247C114.725 86.722 117.38 98.6342 112.318 111.198L107.05 135.626Z" fill="#1537C8"/>
<path d="M68.3463 87.549L53.5658 95.3087L79.8012 110.828L83.4517 119.833C83.6954 120.434 83.8141 121.078 83.8006 121.727C83.7871 122.375 83.6417 123.014 83.3732 123.604C83.1048 124.194 82.7189 124.724 82.2391 125.16C81.7593 125.597 81.1957 125.931 80.5827 126.142V126.142C79.8857 126.382 79.1426 126.458 78.4116 126.363C77.6805 126.269 76.9813 126.006 76.3687 125.596C75.7562 125.185 75.2469 124.639 74.8807 123.999C74.5145 123.359 74.3015 122.644 74.2582 121.908L73.889 115.632L40.5441 104.628C39.4206 104.257 38.3962 103.636 37.5485 102.811C36.7009 101.985 36.0521 100.978 35.6513 99.8648V99.8648C35.0672 98.2423 35.0375 96.4719 35.5668 94.8306C36.0961 93.1894 37.1546 91.7699 38.5766 90.7943L65.3902 72.3989L68.3463 87.549Z" fill="#FFB8B8"/>
<path d="M83.127 89.0272C76.9626 86.3257 71.3572 89.2603 64.2819 91.6138L63.1733 72.0296C70.1988 68.2851 76.8972 67.2755 83.1271 70.182L83.127 89.0272Z" fill="#1537C8"/>
<path d="M90.5011 62.5156C97.0158 62.5156 102.297 57.2343 102.297 50.7196C102.297 44.2048 97.0158 38.9236 90.5011 38.9236C83.9863 38.9236 78.7051 44.2048 78.7051 50.7196C78.7051 57.2343 83.9863 62.5156 90.5011 62.5156Z" fill="#FFB8B8"/>
<path d="M104.613 49.2311C92.9337 50.375 84.0343 48.4649 78.3467 43.0263V38.6465H103.622L104.613 49.2311Z" fill="#2F2E41"/>
<path d="M195.323 122.074C201.902 122.074 207.235 116.741 207.235 110.162C207.235 103.583 201.902 98.25 195.323 98.25C188.744 98.25 183.411 103.583 183.411 110.162C183.411 116.741 188.744 122.074 195.323 122.074Z" fill="#1537C8"/>
<path d="M199.233 114.736H191.85C191.715 114.736 191.585 114.682 191.49 114.587C191.394 114.491 191.34 114.362 191.34 114.227V109.771C191.34 109.636 191.394 109.507 191.49 109.411C191.585 109.316 191.715 109.262 191.85 109.262H199.233C199.368 109.262 199.498 109.316 199.593 109.411C199.689 109.507 199.742 109.636 199.742 109.771V114.227C199.742 114.362 199.689 114.491 199.593 114.587C199.498 114.682 199.368 114.736 199.233 114.736ZM191.85 109.771V114.227H199.234L199.233 109.771L191.85 109.771Z" fill="white" fill-opacity="0.8"/>
<path d="M197.833 109.771H193.25V107.734C193.25 106.259 194.214 105.188 195.541 105.188C196.869 105.188 197.833 106.259 197.833 107.734L197.833 109.771ZM193.759 109.262H197.324V107.734C197.324 106.535 196.591 105.697 195.541 105.697C194.492 105.697 193.759 106.535 193.759 107.734L193.759 109.262Z" fill="white" fill-opacity="0.8"/>
<path d="M195.541 112.381C195.823 112.381 196.051 112.153 196.051 111.872C196.051 111.591 195.823 111.363 195.541 111.363C195.26 111.363 195.032 111.591 195.032 111.872C195.032 112.153 195.26 112.381 195.541 112.381Z" fill="white" fill-opacity="0.8"/>
</g>
<defs>
<clipPath id="clip0">
<rect width="425" height="315" fill="white"/>
</clipPath>
</defs>
</svg>
