<svg width="50" height="30" viewBox="0 0 50 30" fill="none" xmlns="http://www.w3.org/2000/svg">
<path d="M6.106 22C5.854 22 5.668 21.946 5.548 21.838C5.44 21.718 5.386 21.532 5.386 21.28V10.12C5.386 9.868 5.44 9.688 5.548 9.58C5.668 9.46 5.854 9.4 6.106 9.4H12.424C12.616 9.4 12.754 9.472 12.838 9.616C12.922 9.76 12.964 9.988 12.964 10.3V10.858C12.964 11.17 12.922 11.398 12.838 11.542C12.754 11.686 12.616 11.758 12.424 11.758H8.158V14.368H11.938C12.13 14.368 12.268 14.44 12.352 14.584C12.436 14.728 12.478 14.956 12.478 15.268V15.826C12.478 16.138 12.436 16.366 12.352 16.51C12.268 16.654 12.13 16.726 11.938 16.726H8.158V19.642H12.442C12.634 19.642 12.772 19.714 12.856 19.858C12.94 20.002 12.982 20.23 12.982 20.542V21.1C12.982 21.412 12.94 21.64 12.856 21.784C12.772 21.928 12.634 22 12.442 22H6.106ZM16.2742 22.036C15.5542 22.036 15.1942 21.844 15.1942 21.46V10.12C15.1942 9.868 15.2482 9.688 15.3562 9.58C15.4762 9.46 15.6622 9.4 15.9142 9.4H21.8362C22.0282 9.4 22.1662 9.472 22.2502 9.616C22.3342 9.76 22.3762 9.988 22.3762 10.3V10.858C22.3762 11.17 22.3342 11.398 22.2502 11.542C22.1662 11.686 22.0282 11.758 21.8362 11.758H17.9662V14.926H21.7102C21.9022 14.926 22.0402 14.998 22.1242 15.142C22.2082 15.286 22.2502 15.514 22.2502 15.826V16.384C22.2502 16.696 22.2082 16.924 22.1242 17.068C22.0402 17.212 21.9022 17.284 21.7102 17.284H17.9662V21.46C17.9662 21.844 17.6062 22.036 16.8862 22.036H16.2742ZM27.5049 22.144C26.6529 22.144 25.9089 22.06 25.2729 21.892C24.6369 21.724 24.1389 21.508 23.7789 21.244C23.4429 21.016 23.2749 20.788 23.2749 20.56C23.2749 20.38 23.3409 20.164 23.4729 19.912C23.6049 19.66 23.7609 19.438 23.9409 19.246C24.1209 19.054 24.2709 18.958 24.3909 18.958C24.4629 18.958 24.6309 19.03 24.8949 19.174C25.2789 19.366 25.6269 19.516 25.9389 19.624C26.2509 19.732 26.6169 19.786 27.0369 19.786C27.5049 19.786 27.9009 19.696 28.2249 19.516C28.5609 19.324 28.7289 18.994 28.7289 18.526C28.7289 18.142 28.5729 17.842 28.2609 17.626C27.9609 17.398 27.4689 17.146 26.7849 16.87L25.9569 16.51C25.2009 16.15 24.6069 15.706 24.1749 15.178C23.7429 14.638 23.5269 13.876 23.5269 12.892C23.5269 12.076 23.7249 11.398 24.1209 10.858C24.5289 10.306 25.0569 9.904 25.7049 9.652C26.3529 9.388 27.0489 9.256 27.7929 9.256C28.4049 9.256 28.9569 9.322 29.4489 9.454C29.9529 9.574 30.3489 9.736 30.6369 9.94C30.9009 10.132 31.0329 10.324 31.0329 10.516C31.0329 10.684 30.9789 10.894 30.8709 11.146C30.7629 11.398 30.6309 11.62 30.4749 11.812C30.3189 11.992 30.1749 12.082 30.0429 12.082C29.9829 12.082 29.8809 12.052 29.7369 11.992C29.6049 11.932 29.4909 11.884 29.3949 11.848C28.9629 11.704 28.5129 11.632 28.0449 11.632C27.4209 11.632 26.9829 11.734 26.7309 11.938C26.4909 12.142 26.3709 12.376 26.3709 12.64C26.3709 12.952 26.4549 13.21 26.6229 13.414C26.7909 13.618 26.9949 13.786 27.2349 13.918C27.4749 14.038 27.8289 14.2 28.2969 14.404C28.9809 14.692 29.5389 14.968 29.9709 15.232C30.4029 15.484 30.7749 15.856 31.0869 16.348C31.4109 16.828 31.5729 17.446 31.5729 18.202C31.5729 19.126 31.3749 19.882 30.9789 20.47C30.5949 21.058 30.0969 21.484 29.4849 21.748C28.8729 22.012 28.2129 22.144 27.5049 22.144ZM38.2869 22.144C36.6309 22.144 35.3469 21.766 34.4349 21.01C33.5229 20.242 33.0669 19.168 33.0669 17.788V9.94C33.0669 9.556 33.4269 9.364 34.1469 9.364H34.7589C35.4789 9.364 35.8389 9.556 35.8389 9.94V17.608C35.8389 18.244 36.0669 18.766 36.5229 19.174C36.9789 19.582 37.5669 19.786 38.2869 19.786C39.0069 19.786 39.5949 19.582 40.0509 19.174C40.5189 18.766 40.7529 18.244 40.7529 17.608V9.94C40.7529 9.556 41.1129 9.364 41.8329 9.364H42.4269C43.1469 9.364 43.5069 9.556 43.5069 9.94V17.788C43.5069 19.168 43.0509 20.242 42.1389 21.01C41.2269 21.766 39.9429 22.144 38.2869 22.144Z" fill="black"/>
</svg>
