<svg width="50" height="50" viewBox="0 0 24 24" fill="none" xmlns="http://www.w3.org/2000/svg" data-reactroot="">
<path fill="#1537C8" d="M13 9C13 8.44772 13.4477 8 14 8H21.5C22.0523 8 22.5 8.44772 22.5 9C22.5 9.55228 22.0523 10 21.5 10H14C13.4477 10 13 9.55228 13 9Z" clip-rule="evenodd" fill-rule="evenodd" undefined="1"></path>
<path fill="#1537C8" d="M1.5 9C1.5 8.44772 1.94772 8 2.5 8H10C10.5523 8 11 8.44772 11 9C11 9.55228 10.5523 10 10 10H2.5C1.94772 10 1.5 9.55228 1.5 9Z" clip-rule="evenodd" fill-rule="evenodd" undefined="1"></path>
<path fill="#1537C8" d="M2.5 7.5C1.67157 7.5 1 8.17157 1 9C1 9.82843 1.67157 10.5 2.5 10.5C3.32843 10.5 4 9.82843 4 9C4 8.17157 3.32843 7.5 2.5 7.5Z" undefined="1"></path>
<path fill="#1537C8" d="M21.5 7.5C20.6716 7.5 20 8.17157 20 9C20 9.82843 20.6716 10.5 21.5 10.5C22.3284 10.5 23 9.82843 23 9C23 8.17157 22.3284 7.5 21.5 7.5Z" undefined="1"></path>
<path fill="#1537C8" d="M13.0317 9.0002C13.1697 8.46543 13.715 8.14374 14.2498 8.2817C18.1301 9.28271 21 12.8024 21 17C21 17.5523 20.5523 18 20 18C19.4477 18 19 17.5523 19 17C19 13.7376 16.7699 10.9973 13.7502 10.2183C13.2154 10.0803 12.8937 9.53498 13.0317 9.0002Z" clip-rule="evenodd" fill-rule="evenodd" undefined="1"></path>
<path fill="#1537C8" d="M10.9683 9.0002C11.1063 9.53498 10.7846 10.0803 10.2498 10.2183C7.23012 10.9973 5 13.7376 5 17C5 17.5523 4.55228 18 4 18C3.44772 18 3 17.5523 3 17C3 12.8024 5.86988 9.28271 9.75021 8.2817C10.285 8.14374 10.8303 8.46543 10.9683 9.0002Z" clip-rule="evenodd" fill-rule="evenodd" undefined="1"></path>
<path fill="#1537C8" d="M14 7H10V11H14V7Z" undefined="1"></path>
</svg>
