<svg width="132" height="100" viewBox="0 0 132 100" fill="none" xmlns="http://www.w3.org/2000/svg">
<g clip-path="url(#clip0)">
<path d="M123.543 50.1204C120.864 49.5665 115.792 48.5274 110.052 47.3763C101.553 45.6725 99.336 52.1216 99.336 52.1216C99.336 55.4064 88.2549 69.0319 88.2549 69.0319L84.95 61.711C85.4579 61.7885 85.9769 61.754 86.4697 61.6099C88.362 61.0512 89.2972 58.9404 89.6004 57.0126C90.053 54.1092 89.6395 51.1383 88.4107 48.4636C87.8469 47.2426 87.1163 46.0939 86.6633 44.8296C84.7527 39.5244 88.0625 33.3835 86.0605 28.0987C85.2337 25.9181 83.5849 24.1493 82.4452 22.112C79.888 17.5304 79.9976 11.7989 77.209 7.34859C74.5933 3.1764 69.4388 0.703191 64.5009 1.25467C61.5894 1.57977 59.5083 2.60807 56.7953 1.37508C54.5047 0.337147 51.7552 -0.823599 49.3964 0.81156C47.3848 2.2059 47.0426 4.95244 45.9442 7.12342C44.0154 10.9368 39.4392 13.4256 38.901 17.6556C38.7683 18.6984 38.901 19.7796 38.5929 20.7863C37.7137 23.6315 33.8852 24.472 32.3168 27.0114C30.7813 29.4967 32.3326 33.2547 35.1894 33.9711C36.4071 34.2769 37.7174 34.0915 38.9339 34.4154C40.0749 34.7164 41.1818 35.7712 40.9845 36.873L38.4541 37.3281L31.1734 38.1276L30.047 38.1975C30.047 38.1975 30.047 38.2167 30.047 38.2517L29.9861 38.2589L30.0458 38.307C30.0458 38.3925 30.0458 38.5262 30.0458 38.702C27.9964 39.4955 24.6757 41.6135 23.4214 47.1692C23.1341 48.4372 22.5535 49.6221 21.7252 50.6309C19.8584 52.9067 16.7605 57.351 16.9335 61.6171C17.177 67.7002 17.177 70.1337 25.3089 68.4299C27.3632 68 29.5977 67.1186 31.7908 66.0421C31.9186 68.578 32.2511 71.0644 32.9452 72.9308C35.1626 78.8922 30.4817 99.9398 30.4817 99.9398H75.6869C75.6869 99.9398 71.8681 87.5304 68.1736 81.2041C65.5567 76.7225 66.5236 74.012 67.3102 72.8116C67.9924 71.7913 68.5019 70.6681 68.819 69.4859C68.9529 68.9669 69.0832 68.3781 69.1952 67.7255C70.0269 68.3986 70.9146 69.003 71.9193 69.3642C72.8496 69.6978 73.9078 69.7893 74.8491 69.5316C76.7755 71.8603 78.9272 74.4142 81.2299 77.068C90.0985 87.2872 92.5619 80.9609 92.5619 80.9609C92.5619 80.9609 101.553 64.0506 102.791 58.9404C104.028 53.8302 106.732 54.0734 106.732 54.0734C114.146 55.9265 120.717 53.2366 123.769 51.6183C123.918 51.5404 124.038 51.4189 124.114 51.2706C124.189 51.1223 124.217 50.9544 124.192 50.7901C124.167 50.6259 124.091 50.4732 123.975 50.3533C123.859 50.2333 123.708 50.152 123.543 50.1204ZM32.0781 53.1776C32.6966 52.4805 33.2281 51.7124 33.6612 50.8898H33.6843C33.4598 51.7403 33.1704 52.5727 32.8185 53.3799C32.1281 53.5111 31.7116 53.5798 31.7116 53.5798L32.0781 53.1776Z" fill="url(#paint0_linear)"/>
<path d="M49.0737 1.89406C47.0852 3.27395 46.7467 5.98798 45.6641 8.1409C43.7572 11.9145 39.2334 14.3793 38.7013 18.5647C38.5698 19.5967 38.7013 20.6671 38.3968 21.6617C37.5286 24.478 33.7427 25.3101 32.1865 27.823C30.668 30.2818 32.2023 34.0012 35.0262 34.7104C36.233 35.0139 37.525 34.8308 38.7281 35.1499C39.9312 35.469 41.0965 36.6346 40.6983 37.7989C40.4024 38.6659 39.3588 39.1596 39.1689 40.0554C39.0033 40.826 39.5342 41.5605 40.0481 42.1602C40.7008 42.9187 41.3973 43.6653 42.2704 44.1626C44.6717 45.5304 47.6673 44.7092 50.4364 44.6189C53.7864 44.5206 57.0705 45.5529 59.7482 47.5461C60.5141 48.1204 61.235 48.7839 61.7099 49.6111C63.2577 52.3059 61.794 55.6882 62.1227 58.7694C62.4954 62.2709 65.1402 65.0813 67.8107 67.4088C68.8774 68.3384 70.0026 69.2547 71.342 69.7351C72.6815 70.2156 74.2828 70.1891 75.4092 69.3317C76.5928 68.4311 77.0044 66.8357 77.0117 65.3582C77.019 63.8808 76.7049 62.4106 76.7804 60.9356C76.8169 60.2132 77.0836 59.3546 77.7959 59.2125C78.1527 59.1415 78.5144 59.2848 78.8395 59.4461C81.1118 60.5756 83.2915 62.7875 85.7269 62.0699C87.5985 61.5172 88.5276 59.4281 88.8223 57.5196C89.269 54.6473 88.8602 51.7085 87.646 49.062C87.0883 47.8579 86.3662 46.7177 85.9181 45.4654C84.0355 40.2047 87.305 34.1252 85.3275 28.8983C84.5104 26.7405 82.8799 24.9898 81.7535 22.9729C79.2206 18.4383 79.3339 12.7658 76.5758 8.36125C73.9906 4.23121 68.8932 1.78449 64.0126 2.32994C61.134 2.65144 59.0772 3.6701 56.3946 2.45035C54.1297 1.42567 51.4118 0.270943 49.0737 1.89406Z" fill="#40243E"/>
<path d="M68.3745 40.0361C68.3745 40.0361 76.2897 37.6279 79.4557 51.5954L87.4926 69.416C87.4926 69.416 98.452 55.9302 98.452 52.6791C98.452 52.6791 100.644 46.2974 109.046 47.9832C114.722 49.1222 119.73 50.1505 122.384 50.6984C122.545 50.7316 122.692 50.813 122.805 50.9317C122.918 51.0503 122.992 51.2005 123.015 51.3617C123.039 51.523 123.012 51.6876 122.938 51.8332C122.864 51.9788 122.747 52.0984 122.602 52.1758C119.584 53.7773 113.088 56.4395 105.758 54.6057C105.758 54.6057 103.079 54.3649 101.862 59.4221C100.644 64.4792 91.7546 81.2162 91.7546 81.2162C91.7546 81.2162 89.3192 87.4774 80.5517 77.3631C71.7841 67.2487 65.2085 58.5792 65.2085 58.5792L68.3745 40.0361Z" fill="#FFB8B8"/>
<path d="M68.3745 41.7219L67.3248 45.1403L66.2873 48.5214L64.2343 55.2077L54.4926 57.0139L51.318 55.0115L47.4299 52.5587L44.0775 50.2709L39.1494 46.8995L35.131 38.5912C35.131 38.5912 36.2391 38.3974 39.6937 37.7761L44.5074 36.9055C47.8317 36.3034 49.0884 33.8567 49.472 31.3667C49.931 28.3853 49.1347 25.3462 49.1347 25.3462H61.4336C61.4336 25.3462 62.8096 27.3931 62.594 30.9284C62.5264 31.9745 62.3414 33.0099 62.0424 34.0157C60.9611 37.7171 63.4026 38.9525 65.0587 39.3534C65.5065 39.4658 65.9647 39.5331 66.4262 39.5545L68.3745 41.7219Z" fill="#FFB8B8"/>
<path opacity="0.1" d="M62.5905 30.9284C60.7057 32.3072 58.4419 33.0876 56.0987 33.1663C53.7556 33.245 51.4435 32.6183 49.4684 31.3691C49.9275 28.3878 49.1311 25.3486 49.1311 25.3486H61.43C61.43 25.3486 62.8097 27.3872 62.5905 30.9284Z" fill="black"/>
<path d="M55.7104 32.8115C62.0993 32.8115 67.2786 27.6901 67.2786 21.3726C67.2786 15.0551 62.0993 9.93372 55.7104 9.93372C49.3214 9.93372 44.1421 15.0551 44.1421 21.3726C44.1421 27.6901 49.3214 32.8115 55.7104 32.8115Z" fill="#FFB8B8"/>
<path opacity="0.1" d="M68.3745 41.7219L67.3248 45.1404L66.2873 48.5215L64.2343 55.2078L54.4926 57.0139L51.318 55.0115L47.4299 52.5588L44.0775 50.271L39.1494 46.8995L35.131 38.5913C35.131 38.5913 36.2391 38.3974 39.6937 37.7761C42.1292 44.4769 45.21 46.9718 47.99 47.7809C49.6522 48.2626 51.206 48.1422 52.4444 47.9616C54.0362 47.7097 55.6638 47.7917 57.2215 48.2024C60.9599 49.2307 62.9277 47.262 63.9615 44.7635C64.7262 42.9152 64.9795 40.7755 65.0575 39.3451C65.5053 39.4574 65.9634 39.5248 66.4249 39.5461L68.3745 41.7219Z" fill="black"/>
<path d="M30.382 100C30.382 100 35.0093 79.1692 32.8174 73.2691C32.1903 71.5834 31.8615 69.3775 31.7142 67.0945C31.3488 61.4028 32.0868 55.2077 32.0868 55.2077C32.1915 55.0067 32.2901 54.8068 32.3851 54.6057C32.6287 54.0919 32.843 53.5894 33.0281 53.0982C35.6376 46.1554 32.3912 41.5328 30.7449 39.7652C30.4808 39.4752 30.1959 39.2044 29.8925 38.9549L39.208 37.9314C41.6568 44.8802 44.7973 47.4437 47.6224 48.2649C49.2845 48.7466 50.8383 48.6262 52.0767 48.4455C53.6686 48.1937 55.2962 48.2757 56.8538 48.6864C60.5922 49.7147 62.56 47.746 63.5939 45.2475C64.8773 42.1457 64.719 38.2288 64.719 38.2288L70.077 39.7941C70.077 39.7941 69.6045 42.696 69.1771 46.5094C69.076 47.404 68.9774 48.348 68.8885 49.3173C68.5232 53.3607 68.3064 57.8315 68.7375 60.8658C69.1755 63.8642 69.0196 66.9183 68.2784 69.8579C67.9655 71.028 67.4621 72.1399 66.7879 73.1499C66.0098 74.3372 65.0539 77.0211 67.6403 81.4582C71.2935 87.7195 75.0684 100.001 75.0684 100.001L30.382 100Z" fill="#1537C8"/>
<path d="M70.0185 39.8556C70.0185 39.8556 74.4424 46.7189 68.6376 52.619C62.8327 58.519 65.1476 50.2108 65.1476 50.2108L66.6089 40.578L70.0185 39.8556Z" fill="#1537C8"/>
<path opacity="0.1" d="M30.7448 39.7651C31.0749 39.6618 31.4135 39.5869 31.7567 39.5411C33.3397 40.2877 34.2164 42.3599 34.6926 44.5237C35.0104 45.9912 35.0268 47.507 34.7408 48.9809C34.4549 50.4548 33.8724 51.857 33.028 53.1041C35.6375 46.1552 32.3911 41.5327 30.7448 39.7651Z" fill="black"/>
<path opacity="0.1" d="M68.8908 49.3185C66.291 49.4882 62.8948 49.1872 62.8948 49.1872C63.3527 51.2583 62.4077 52.8766 61.4336 53.9314C61.0611 54.3393 60.5909 54.6483 60.0662 54.8298C59.5416 55.0114 58.9792 55.0597 58.4307 54.9705C52.8122 54.0072 44.2687 59.0644 44.2687 59.0644C44.2687 59.0644 38.1582 63.9446 31.7141 67.0981C31.3488 61.4064 32.0867 55.2113 32.0867 55.2113C32.1914 55.0102 32.2901 54.8103 32.385 54.6093C34.9885 54.1276 44.4477 52.2252 46.3339 49.4317C46.614 49.0162 47.0646 48.6273 47.6247 48.2661C49.2357 47.2354 51.8136 46.4274 54.2649 45.8374C57.3157 45.0974 60.4753 44.8993 63.5962 45.2522C64.9361 45.404 66.2618 45.6597 67.5611 46.0168C68.1285 46.1722 68.6765 46.3395 69.1794 46.5141C70.5579 46.9958 71.6027 47.534 71.7841 48.1071C72.0289 48.8778 70.6395 49.2053 68.8908 49.3185Z" fill="black"/>
<path opacity="0.1" d="M66.2874 48.5215C64.4133 48.4902 62.7731 48.3445 62.7731 48.3445C63.2309 50.4155 62.286 52.0338 61.3118 53.0886C60.9393 53.4966 60.4691 53.8055 59.9445 53.9871C59.4198 54.1686 58.8574 54.217 58.3089 54.1277C56.1913 53.7665 53.6573 54.259 51.3229 55.0115L47.4299 52.5588L44.0775 50.271C45.0517 49.7545 45.8054 49.1873 46.2122 48.5853C47.2935 46.9814 50.8395 45.7882 54.1431 44.9911C58.4787 43.934 63.0149 43.9854 67.3249 45.1404L67.4393 45.1705C69.5569 45.7545 71.4152 46.4781 71.6624 47.2608C72.0179 48.3866 68.9225 48.5672 66.2874 48.5215Z" fill="black"/>
<path d="M31.6349 38.9368C31.6349 38.9368 25.2651 39.5773 23.4081 47.7423C23.121 49.0115 22.5418 50.1982 21.7154 51.2101C19.8694 53.4654 16.8166 57.8567 16.9871 62.0722C17.2306 68.0927 17.2306 70.5009 25.2675 68.8152C33.3044 67.1294 44.1421 58.46 44.1421 58.46C44.1421 58.46 52.6855 53.4112 58.304 54.366C58.8525 54.4551 59.4148 54.4066 59.9395 54.225C60.4641 54.0435 60.9343 53.7347 61.3069 53.3269C62.2811 52.2721 63.2321 50.6538 62.7682 48.5828C62.7682 48.5828 72.2663 49.4256 71.6575 47.4991C71.4139 46.7164 69.5521 45.9928 67.4344 45.41C63.091 44.2259 58.5129 44.1637 54.1382 45.2294C50.8285 46.0277 47.2886 47.2209 46.2073 48.8236C44.0154 52.0746 31.5947 54.1216 31.5947 54.1216L31.9601 53.7158C33.1397 52.3985 33.9904 50.826 34.4438 49.1246C34.8972 47.4232 34.9407 45.6404 34.5708 43.9193C34.0959 41.7556 33.2228 39.6833 31.6349 38.9368Z" fill="#FFB8B8"/>
<path d="M29.9557 38.8923C29.9557 38.8923 29.5904 53.4619 35.0701 51.2945C40.5498 49.1271 36.2878 38.8923 36.2878 38.8923L33.8524 38.6515L29.9557 38.8923Z" fill="#1537C8"/>
<path opacity="0.1" d="M46.3547 21.5689C49.9675 21.1724 53.5304 20.4152 56.9889 19.3089C57.8779 19.0247 58.8435 18.6466 59.2588 17.8206C59.3659 17.6075 59.4463 17.3546 59.6569 17.2378C59.8359 17.1379 60.0576 17.1692 60.2585 17.2149C61.4458 17.4931 62.465 18.2288 63.5962 18.6803C64.7275 19.1319 66.1681 19.2378 67.0375 18.3901C68.064 17.3883 67.7243 15.6665 67.0485 14.4082C64.5388 9.72669 58.6596 7.58942 53.3114 7.97714C52.5601 8.03132 51.7966 8.13126 51.1196 8.45878C49.6875 9.13909 48.9033 10.6526 48.1277 12.0241C46.6189 14.6839 38.6417 22.413 46.3547 21.5689Z" fill="black"/>
<path d="M46.3547 21.2077C49.9675 20.8112 53.5304 20.054 56.9889 18.9477C57.8779 18.6635 58.8435 18.2854 59.2588 17.4594C59.3659 17.2463 59.4463 16.9934 59.6569 16.8766C59.8359 16.7767 60.0576 16.808 60.2585 16.8537C61.4458 17.1319 62.465 17.8676 63.5962 18.3191C64.7275 18.7707 66.1681 18.8766 67.0375 18.0289C68.064 17.0271 67.7243 15.3053 67.0485 14.047C64.5388 9.36548 58.6596 7.22821 53.3114 7.61593C52.5601 7.67012 51.7966 7.77006 51.1196 8.09757C49.6875 8.77788 48.9033 10.2914 48.1277 11.6629C46.6189 14.3227 38.6417 22.0518 46.3547 21.2077Z" fill="#40243E"/>
<path d="M124.845 33.9554H100.125C99.8264 33.9554 99.5399 34.0728 99.3287 34.2817C99.1175 34.4905 98.9988 34.7738 98.9988 35.0692V49.3979C98.9988 49.6933 99.1175 49.9766 99.3287 50.1855C99.5399 50.3944 99.8264 50.5117 100.125 50.5117H124.845C125.143 50.5117 125.43 50.3944 125.641 50.1855C125.852 49.9766 125.971 49.6933 125.971 49.3979V35.0692C125.971 34.7738 125.852 34.4905 125.641 34.2817C125.43 34.0728 125.143 33.9554 124.845 33.9554Z" fill="url(#paint1_linear)"/>
<path d="M124.204 34.1505H100.762C99.9611 34.1505 99.3118 34.7926 99.3118 35.5846V48.8838C99.3118 49.6758 99.9611 50.3179 100.762 50.3179H124.204C125.005 50.3179 125.655 49.6758 125.655 48.8838V35.5846C125.655 34.7926 125.005 34.1505 124.204 34.1505Z" fill="#FF7837"/>
<path d="M125.655 36.9801H99.3118V39.9446H125.655V36.9801Z" fill="#6C63FF"/>
<path opacity="0.3" d="M125.655 36.9801H99.3118V39.9446H125.655V36.9801Z" fill="black"/>
<path d="M123.156 42.1445H101.809V43.5822H123.156V42.1445Z" fill="#D6D6E3"/>
<path d="M103.581 49.2402C104.735 49.2402 105.671 48.3152 105.671 47.174C105.671 46.0329 104.735 45.1078 103.581 45.1078C102.427 45.1078 101.491 46.0329 101.491 47.174C101.491 48.3152 102.427 49.2402 103.581 49.2402Z" fill="#6C63FF"/>
<path opacity="0.3" d="M103.581 49.2402C104.735 49.2402 105.671 48.3152 105.671 47.174C105.671 46.0329 104.735 45.1078 103.581 45.1078C102.427 45.1078 101.491 46.0329 101.491 47.174C101.491 48.3152 102.427 49.2402 103.581 49.2402Z" fill="black"/>
<path opacity="0.05" d="M30.8081 54.1842C30.8081 54.1842 28.4944 55.3991 28.1109 56.8838C27.7273 58.3684 27.2767 58.6394 27.2767 58.6394" fill="black"/>
<path opacity="0.05" d="M87.5535 69.3558C87.5535 69.3558 86.4576 73.0885 87.5535 73.5702V69.3558Z" fill="black"/>
<path opacity="0.05" d="M32.8782 73.5701C32.8782 73.5701 42.3763 75.617 49.4391 71.4027H52.4833C52.4833 71.4027 61.6162 75.9783 65.9999 74.6538" fill="black"/>
</g>
<defs>
<linearGradient id="paint0_linear" x1="70.5579" y1="99.9398" x2="70.5579" y2="-1.65489e-06" gradientUnits="userSpaceOnUse">
<stop stop-color="#808080" stop-opacity="0.25"/>
<stop offset="0.54" stop-color="#808080" stop-opacity="0.12"/>
<stop offset="1" stop-color="#808080" stop-opacity="0.1"/>
</linearGradient>
<linearGradient id="paint1_linear" x1="26578.3" y1="7554.81" x2="26578.3" y2="5278.16" gradientUnits="userSpaceOnUse">
<stop stop-color="#808080" stop-opacity="0.25"/>
<stop offset="0.54" stop-color="#808080" stop-opacity="0.12"/>
<stop offset="1" stop-color="#808080" stop-opacity="0.1"/>
</linearGradient>
<clipPath id="clip0">
<rect width="132" height="100" fill="white"/>
</clipPath>
</defs>
</svg>
