<svg width="149" height="99" viewBox="0 0 149 99" fill="none" xmlns="http://www.w3.org/2000/svg">
<g clip-path="url(#clip0)">
<path d="M30.0151 50.8871C40.5875 50.8871 49.1581 42.2422 49.1581 31.5782C49.1581 20.9142 40.5875 12.2693 30.0151 12.2693C19.4427 12.2693 10.8721 20.9142 10.8721 31.5782C10.8721 42.2422 19.4427 50.8871 30.0151 50.8871Z" fill="#F7F7F7"/>
<path d="M55.5393 38.6512H41.585C40.6328 33.0984 40.6328 27.422 41.585 21.8693H55.5393C53.9672 27.3509 53.9672 33.1696 55.5393 38.6512Z" fill="#1537C8"/>
<path d="M52.443 26.4147H43.9516C43.8051 26.4147 43.6863 26.2221 43.6863 25.9842C43.6863 25.7463 43.8051 25.5537 43.9516 25.5537H52.443C52.5896 25.5537 52.7084 25.7463 52.7084 25.9842C52.7084 26.2221 52.5896 26.4147 52.443 26.4147Z" fill="white"/>
<path d="M52.443 30.4083H43.9516C43.8051 30.4083 43.6863 30.2158 43.6863 29.9778C43.6863 29.7399 43.8051 29.5474 43.9516 29.5474H52.443C52.5896 29.5474 52.7084 29.7399 52.7084 29.9778C52.7084 30.2158 52.5896 30.4083 52.443 30.4083Z" fill="white"/>
<path d="M12.1812 21.6205H30.1586C31.3855 14.4668 31.3855 7.1537 30.1586 0H12.1812C14.2065 7.06205 14.2065 14.5584 12.1812 21.6205Z" fill="#1537C8"/>
<path d="M27.322 6.29914H16.3824C16.1936 6.29914 16.0405 6.05109 16.0405 5.74454C16.0405 5.43799 16.1936 5.18994 16.3824 5.18994H27.322C27.5108 5.18994 27.6639 5.438 27.6639 5.74454C27.6639 6.05109 27.5108 6.29914 27.322 6.29914Z" fill="white"/>
<path d="M27.322 11.4442H16.3824C16.1936 11.4442 16.0405 11.1961 16.0405 10.8896C16.0405 10.583 16.1936 10.335 16.3824 10.335H27.322C27.5108 10.335 27.6639 10.583 27.6639 10.8896C27.6639 11.1961 27.5108 11.4442 27.322 11.4442Z" fill="white"/>
<path d="M27.322 16.5892H16.3824C16.1936 16.5892 16.0405 16.3411 16.0405 16.0346C16.0405 15.728 16.1936 15.48 16.3824 15.48H27.322C27.5108 15.48 27.6639 15.728 27.6639 16.0346C27.6639 16.3411 27.5108 16.5892 27.322 16.5892Z" fill="white"/>
<path d="M0.305176 55.2323H18.2827C19.5095 48.0786 19.5095 40.7655 18.2827 33.6118H0.305176C2.33048 40.6739 2.33048 48.1702 0.305176 55.2323Z" fill="#1537C8"/>
<path d="M15.4463 39.911H4.50666C4.31787 39.911 4.16479 39.6629 4.16479 39.3564C4.16479 39.0498 4.31786 38.8018 4.50666 38.8018H15.4463C15.6351 38.8018 15.7882 39.0498 15.7882 39.3564C15.7882 39.6629 15.6351 39.911 15.4463 39.911Z" fill="white"/>
<path d="M15.4463 45.056H4.50666C4.31787 45.056 4.16479 44.8079 4.16479 44.5014C4.16479 44.1948 4.31786 43.9468 4.50666 43.9468H15.4463C15.6351 43.9468 15.7882 44.1948 15.7882 44.5014C15.7882 44.8079 15.6351 45.056 15.4463 45.056Z" fill="white"/>
<path d="M94.5662 92.8477L97.1585 88.4584L93.4954 86.9805L93.1597 87.4131C92.3208 88.4943 91.5718 90.7788 90.553 91.667" fill="#FFB8B8"/>
<path d="M95.8083 93.5406L95.6819 97.3524C95.6699 97.7122 95.5189 98.0531 95.2611 98.302C95.0033 98.551 94.6592 98.6884 94.3023 98.6849L91.4439 98.6563H88.2203C88.2203 98.6563 82.2127 98.5085 81.9196 96.1438C81.822 95.3555 82.4895 94.83 83.4229 94.4797C85.6656 93.645 87.7646 92.4608 89.6436 90.9703C89.8665 90.7906 90.1325 90.6736 90.4148 90.6313C90.697 90.589 90.9853 90.6229 91.2503 90.7295L94.9713 92.2434C95.2258 92.3469 95.4427 92.5269 95.5924 92.759C95.7421 92.991 95.8175 93.2639 95.8083 93.5406Z" fill="#2F2E41"/>
<path d="M89.0968 92.7921C89.2586 92.7921 89.3898 92.6598 89.3898 92.4965C89.3898 92.3333 89.2586 92.2009 89.0968 92.2009C88.9349 92.2009 88.8037 92.3333 88.8037 92.4965C88.8037 92.6598 88.9349 92.7921 89.0968 92.7921Z" fill="white"/>
<path d="M90.0382 91.7615C90.2 91.7615 90.3312 91.6291 90.3312 91.4659C90.3312 91.3026 90.2 91.1703 90.0382 91.1703C89.8763 91.1703 89.7451 91.3026 89.7451 91.4659C89.7451 91.6291 89.8763 91.7615 90.0382 91.7615Z" fill="white"/>
<path d="M123.532 87.0637L122.288 82.1111L118.662 83.6787L118.728 84.224C118.893 85.5869 119.964 87.7365 119.867 89.0912" fill="#FFB8B8"/>
<path d="M124.891 86.6618L127.42 89.3898C127.68 89.6697 127.82 90.0409 127.812 90.4241C127.804 90.8072 127.647 91.1719 127.376 91.4402L125.396 93.3979L123.117 95.6971C123.117 95.6971 118.765 99.8774 116.9 98.4143C116.279 97.9266 116.382 97.0789 116.797 96.1654C117.804 93.9617 118.46 91.6115 118.74 89.2014C118.77 88.9292 118.871 88.6698 119.033 88.4497C119.194 88.2297 119.411 88.0568 119.661 87.9489L123.402 86.3443C123.653 86.2369 123.93 86.2097 124.196 86.2665C124.462 86.3233 124.705 86.4613 124.891 86.6618Z" fill="#2F2E41"/>
<path d="M119.419 91.0121C119.58 91.0121 119.712 90.8797 119.712 90.7165C119.712 90.5532 119.58 90.4209 119.419 90.4209C119.257 90.4209 119.125 90.5532 119.125 90.7165C119.125 90.8797 119.257 91.0121 119.419 91.0121Z" fill="white"/>
<path d="M119.362 89.6118C119.524 89.6118 119.655 89.4795 119.655 89.3162C119.655 89.153 119.524 89.0206 119.362 89.0206C119.2 89.0206 119.069 89.153 119.069 89.3162C119.069 89.4795 119.2 89.6118 119.362 89.6118Z" fill="white"/>
<path d="M101.554 24.9061L103.166 29.4877L107.416 26.9752C107.416 26.9752 105.218 24.3149 105.364 22.8369L101.554 24.9061Z" fill="#FFB8B8"/>
<path d="M102.067 25.5711C104.333 25.5711 106.17 23.7184 106.17 21.4328C106.17 19.1473 104.333 17.2946 102.067 17.2946C99.8012 17.2946 97.9644 19.1473 97.9644 21.4328C97.9644 23.7184 99.8012 25.5711 102.067 25.5711Z" fill="#FFB8B8"/>
<path d="M108.001 26.384L107.142 26.6264C107.142 26.6264 105.364 26.5318 104.485 27.862C103.606 29.1922 102.955 28.8884 102.955 28.8884L99.3564 34.365C99.3564 34.365 98.1842 36.582 98.6238 39.0945C99.0633 41.607 100.529 45.1542 100.529 45.1542C100.529 45.1542 109.906 46.0409 110.199 45.5975C110.492 45.1542 110.199 42.1982 110.199 42.1982L111.372 29.0444C111.372 29.0444 110.053 26.8274 109.32 26.8274C108.847 26.8113 108.389 26.6573 108.001 26.384Z" fill="#1537C8"/>
<path d="M110.932 44.7107C110.932 44.7107 108.441 44.5629 107.415 44.8585C106.39 45.154 100.236 44.8585 100.236 44.8585L98.4772 55.9432L92.7627 87.276L98.9168 89.6407L106.243 72.053L107.122 74.5655L118.258 86.8326L124.119 84.1723L114.449 67.9147L111.372 56.5344C111.372 56.5344 113.276 50.0313 110.639 46.0408L110.932 44.7107Z" fill="#2F2E41"/>
<path opacity="0.2" d="M100.96 56.3379L100.683 56.4353L106.105 72.1017L106.382 72.0043L100.96 56.3379Z" fill="black"/>
<path d="M109.669 14.9009C109.435 13.9695 108.655 13.3652 107.926 13.5511C107.918 13.5532 107.91 13.5566 107.902 13.5589C107.984 13.5126 108.072 13.4773 108.164 13.4539C108.893 13.268 109.673 13.8723 109.906 14.8037C110.137 15.7245 109.747 16.619 109.033 16.8188C109.592 16.5063 109.872 15.7135 109.669 14.9009Z" fill="#2F2E41"/>
<path d="M109.497 16.3502C110.232 15.7399 110.441 14.7703 109.963 14.1846C109.958 14.178 109.952 14.1725 109.946 14.166C110.023 14.2215 110.092 14.2868 110.152 14.3602C110.63 14.9459 110.421 15.9155 109.685 16.5258C108.958 17.1292 107.989 17.1545 107.506 16.589C108.024 16.9655 108.855 16.8827 109.497 16.3502Z" fill="#2F2E41"/>
<path d="M109.925 16.6374C110.325 15.9951 109.995 15.0603 109.188 14.5494C108.382 14.0386 107.404 14.1452 107.004 14.7875C106.604 15.4298 106.934 16.3646 107.74 16.8754C108.547 17.3862 109.525 17.2797 109.925 16.6374Z" fill="#2F2E41"/>
<path d="M107.047 16.1595C107.434 16.1596 107.812 16.2716 108.137 16.4822C108.422 16.6601 108.66 16.9058 108.829 17.198C108.443 17.1979 108.065 17.0859 107.74 16.8753C107.455 16.6974 107.217 16.4517 107.047 16.1595Z" fill="#6C63FF"/>
<path d="M101.482 15.5209C100.859 15.5209 100.664 16.0781 100.782 16.6625C101.457 19.9345 101.192 23.3331 100.016 26.4578H103.78L104.485 24.7756L104.758 26.4578H109.687V24.7612C111.345 17.8888 107.828 14.5349 101.482 15.5209Z" fill="#2F2E41"/>
<path d="M100.864 15.6688H100.486C100.116 15.6688 99.7504 15.7423 99.4089 15.8849C99.0675 16.0276 98.7572 16.2367 98.4958 16.5004C98.2344 16.764 98.0271 17.077 97.8856 17.4214C97.7442 17.7659 97.6714 18.1351 97.6714 18.5079V19.5115L100.127 19.2094L100.309 18.477L100.48 19.1661L103.679 18.7725V18.5079C103.679 18.1351 103.606 17.7659 103.465 17.4214C103.323 17.077 103.116 16.764 102.855 16.5004C102.593 16.2367 102.283 16.0276 101.941 15.8849C101.6 15.7423 101.234 15.6688 100.864 15.6688Z" fill="#2F2E41"/>
<path opacity="0.2" d="M107.066 33.9635L105.601 44.9004L104.064 44.9812L107.066 33.9635Z" fill="black"/>
<path d="M105.551 47.1313L102.64 55.9409C102.64 55.9409 96.5749 62.7928 99.9715 62.7928C103.368 62.7928 105.066 56.6751 105.066 56.6751L109.191 47.8655L105.551 47.1313Z" fill="#FFB8B8"/>
<path d="M108.584 27.1875C108.584 27.1875 110.557 26.326 111.755 28.4951C112.953 30.6642 112.466 38.9337 112.223 40.1572C111.98 41.3808 110.282 48.9668 110.282 48.9668L104.459 47.7432C104.459 47.7432 103.974 44.3173 105.43 44.562L108.584 27.1875Z" fill="#1537C8"/>
</g>
<defs>
<clipPath id="clip0">
<rect width="149" height="99" fill="white"/>
</clipPath>
</defs>
</svg>
